<?xml version="1.0" encoding="UTF-8"?>
<svg width="752pt" height="752pt" version="1.1" viewBox="0 0 752 752" xmlns="http://www.w3.org/2000/svg">
 <g>
  <path d="m376 0c-49.375 0-98.27 9.7266-143.89 28.621-45.621 18.895-87.07 46.59-121.98 81.508-34.918 34.914-62.613 76.363-81.508 121.98-18.895 45.617-28.621 94.512-28.621 143.89 0 99.723 39.617 195.36 110.13 265.87 70.516 70.516 166.15 110.13 265.87 110.13 99.723 0 195.36-39.617 265.87-110.13 70.512-70.512 110.13-166.15 110.13-265.87 0-99.719-39.613-195.36-110.12-265.87-70.516-70.516-166.15-110.13-265.88-110.13zm0 42.465c43.316 0 86.207 8.625 126.23 25.387 40.02 16.762 76.379 41.332 107.01 72.305s54.926 67.738 71.5 108.21c16.578 40.465 25.105 83.84 25.105 127.64 0 88.461-34.75 173.3-96.605 235.84-61.859 62.551-145.75 97.691-233.23 97.691-43.312 0-86.207-8.625-126.22-25.387-40.02-16.762-76.383-41.332-107.01-72.301-30.629-30.973-54.926-67.742-71.504-108.21-16.574-40.469-25.105-83.84-25.105-127.64s8.5312-87.172 25.105-127.64c16.578-40.469 40.871-77.238 71.5-108.21 30.629-30.969 66.992-55.539 107.01-72.301 40.02-16.762 82.914-25.387 126.23-25.387z" fill="#9b9b9b"/>
  <path d="m349.33 427.49 9.1172-9.125c2.8867-2.8945 2.8867-7.5703 0-10.465l-19.137-19.129c-2.8945-2.8945-7.5703-2.8945-10.465 0l-9.1172 9.1172-13.902-13.902c-2.8945-2.8945-7.5703-2.8945-10.465 0l-4.3359 4.3359-13.891-13.902c-1.3906-1.3906-3.2695-2.168-5.2383-2.168-1.9609 0-3.8477 0.77734-5.2305 2.168l-52.625 52.625c-0.22266 0.22266-0.3125 0.51953-0.50391 0.76172-0.18359 0.23828-0.44531 0.39844-0.60547 0.66406l-14.34 23.914c-0.4375 0.72656-0.74609 1.5234-0.91016 2.3516l-2.6562 13.254c-1.7773 0.082031-3.5352 0.74609-4.8984 2.1016l-19.137 19.137c-2.8945 2.8945-2.8945 7.5703 0 10.465l81.324 81.324c1.4336 1.4531 3.3203 2.1758 5.2148 2.1758s3.7891-0.72656 5.2305-2.168l19.145-19.137c1.3906-1.3906 2.168-3.2695 2.168-5.2305 0-0.62109-0.20703-1.207-0.35547-1.8047l24.574-10.531c0.3125-0.13281 0.60547-0.28125 0.89453-0.45703l23.914-14.348c1.9531-1.168 3.2578-3.1836 3.5352-5.4375 0.28125-2.2578-0.50391-4.5195-2.1172-6.1328l-18.684-18.684 47.379-47.395c2.8945-2.8945 2.8945-7.5703 0-10.465zm-91.801 137.84-70.859-70.863 8.6719-8.6719 70.867 70.859zm42.625-71.312-14.355 14.34c-2.8945 2.8945-2.8945 7.5703-0.007812 10.465 2.8945 2.9023 7.5781 2.8945 10.465 0.007812l9.125-9.1172 11.988 11.988-15.367 9.2188-28.414 12.18-65.422-65.414 3.7656-18.781 13.215-22.043 46.75-46.75 8.6641 8.6719-37.828 37.82c-2.8945 2.8945-2.8945 7.5703 0 10.465 1.4414 1.4414 3.3359 2.168 5.2305 2.168 1.8945 0 3.7891-0.72656 5.2305-2.168l43.023-43.023c0.007812-0.007813 0.023438-0.007813 0.03125-0.023437 0.007812-0.015626 0.007812-0.023438 0.023438-0.03125l4.3125-4.3125 8.6719 8.6719-52.176 52.176c-2.8945 2.8945-2.8945 7.5703 0 10.465 2.8945 2.8945 7.5703 2.8945 10.465 0l66.523-66.523 8.6719 8.6641-71.305 71.312c-1.4414 1.4414-2.168 3.3359-2.168 5.2305s0.72656 3.7891 2.168 5.2305c2.8945 2.8945 7.5703 2.8945 10.465 0l56.957-56.957 8.6641 8.6641zm63.523-203 13.902-13.891c1.3906-1.3906 2.168-3.2695 2.168-5.2383 0-1.9609-0.77734-3.8477-2.168-5.2305l-52.625-52.625c-0.22266-0.22266-0.51953-0.3125-0.76172-0.50391-0.24609-0.18359-0.39844-0.44531-0.66406-0.60547l-23.914-14.34c-0.72656-0.4375-1.5234-0.74609-2.3516-0.91016l-13.254-2.6562c-0.082031-1.7773-0.74609-3.5352-2.1016-4.8984l-19.137-19.137c-2.8945-2.8945-7.5703-2.8945-10.465 0l-81.324 81.324c-2.8945 2.8945-2.8945 7.5703 0 10.465l19.137 19.145c1.3906 1.3906 3.2695 2.168 5.2305 2.168 0.62109 0 1.207-0.20703 1.8047-0.35547l10.531 24.574c0.13281 0.3125 0.28125 0.60547 0.45703 0.89453l14.348 23.914c1.168 1.9531 3.1836 3.2578 5.4375 3.5352 0.30469 0.035156 0.60547 0.050781 0.90234 0.050781 1.9531 0 3.8398-0.76953 5.2305-2.168l18.684-18.684 47.395 47.379c1.4414 1.4414 3.3359 2.168 5.2305 2.168 1.8945 0 3.7891-0.72656 5.2305-2.168l13.898-13.898 9.125 9.1172c2.8867 2.8867 7.5781 2.8867 10.465 0l19.129-19.137c2.8945-2.8945 2.8945-7.5703 0-10.465l-9.1172-9.1172 13.902-13.902c2.8945-2.8945 2.8945-7.5703 0-10.465zm-168.34-24.812-8.6719-8.6797 70.859-70.859 8.6719 8.6719zm157.87 14.34-37.812-37.816c-2.8945-2.8945-7.5703-2.8945-10.465 0-2.8945 2.8945-2.8945 7.5703 0 10.465l43.023 43.023c0.007813 0.007813 0.007813 0.023438 0.023438 0.03125 0.015625 0.007813 0.023437 0.007813 0.03125 0.023438l4.3125 4.3125-8.6719 8.6719-52.176-52.176c-2.8945-2.8945-7.5703-2.8945-10.465 0-2.8945 2.8945-2.8945 7.5703 0 10.465l66.523 66.523-8.6641 8.6719-71.312-71.305c-2.8945-2.8945-7.5703-2.8945-10.465 0-1.4414 1.4414-2.168 3.3359-2.168 5.2305s0.72656 3.7891 2.168 5.2305l56.957 56.957-8.6641 8.6641-47.395-47.379-14.34-14.355c-2.8867-2.8945-7.5781-2.8945-10.465-0.007812-2.8945 2.8945-2.8945 7.5703-0.007812 10.465l9.1172 9.125-11.988 11.988-9.2266-15.355-12.18-28.414 65.414-65.422 18.781 3.7656 22.043 13.215 46.75 46.75zm49.461 43.965-9.1172 9.125c-2.8867 2.8945-2.8867 7.5703 0 10.465l19.137 19.129c1.4414 1.4414 3.3359 2.168 5.2305 2.168s3.7891-0.72656 5.2305-2.168l9.1172-9.1172 13.902 13.902c1.4414 1.4414 3.3359 2.168 5.2305 2.168 1.8945 0 3.7891-0.72656 5.2305-2.168l4.3359-4.3359 13.891 13.902c1.3906 1.3906 3.2695 2.168 5.2383 2.168 1.9609 0 3.8477-0.77734 5.2305-2.168l52.625-52.625c0.050781-0.050782 0.066406-0.125 0.11719-0.17578 0.36328-0.38672 0.71094-0.77734 0.99219-1.25l14.34-23.914c0.4375-0.72656 0.74609-1.5234 0.91016-2.3516l2.6562-13.254c1.7773-0.082031 3.5352-0.74609 4.8984-2.1016l19.137-19.137c2.8945-2.8945 2.8945-7.5703 0-10.465l-81.324-81.324c-2.8945-2.8945-7.5703-2.8945-10.465 0l-19.145 19.137c-1.3906 1.3906-2.168 3.2695-2.168 5.2305 0 0.62109 0.20703 1.207 0.35547 1.8047l-24.551 10.52c-0.3125 0.13281-0.60547 0.28125-0.89453 0.45703l-23.914 14.348c-1.9531 1.168-3.2578 3.1836-3.5352 5.4375-0.28125 2.2578 0.50391 4.5195 2.1172 6.1328l18.684 18.684-47.379 47.395c-2.8945 2.8945-2.8945 7.5703 0 10.465zm91.797-137.84 70.859 70.859-8.6719 8.6719-70.867-70.859zm-42.621 71.312 14.355-14.34c2.8945-2.8945 2.8945-7.5703 0.007813-10.465-2.8945-2.9023-7.5781-2.8945-10.465-0.007813l-9.125 9.1172-11.988-11.988 15.367-9.2188 28.414-12.18 65.422 65.414-3.7656 18.781-13.215 22.043-46.75 46.75-8.6641-8.6719 37.82-37.82c2.8945-2.8945 2.8945-7.5703 0-10.465-2.8945-2.8945-7.5703-2.8945-10.465 0l-43.023 43.023c-0.007813 0.007813-0.023438 0.007813-0.03125 0.023438-0.007813 0.015625-0.007813 0.023437-0.023438 0.03125l-4.3086 4.3125-8.6719-8.6719 52.176-52.176c2.8945-2.8945 2.8945-7.5703 0-10.465-2.8945-2.8945-7.5703-2.8945-10.465 0l-66.523 66.523-8.6719-8.6641 71.305-71.312c1.4414-1.4414 2.168-3.3359 2.168-5.2305s-0.72656-3.7891-2.168-5.2305c-2.8945-2.8945-7.5703-2.8945-10.465 0l-56.957 56.957-8.6641-8.6641zm110.04 212.11c-1.3906-1.3906-3.2695-2.168-5.2305-2.168-0.62109 0-1.207 0.20703-1.8047 0.35547l-10.531-24.574c-0.13281-0.3125-0.28125-0.60547-0.45703-0.89453l-14.348-23.914c-1.168-1.9531-3.1836-3.2578-5.4375-3.5352-2.25-0.28125-4.5273 0.50391-6.1328 2.1172l-18.684 18.684-47.395-47.379c-2.8945-2.8945-7.5703-2.8945-10.465 0l-13.898 13.898-9.125-9.1172c-2.8867-2.8867-7.5781-2.8867-10.465 0l-19.129 19.137c-2.8945 2.8945-2.8945 7.5703 0 10.465l9.1172 9.1172-13.902 13.902c-2.8945 2.8945-2.8945 7.5703 0 10.465l4.3359 4.3359-13.902 13.891c-1.3906 1.3906-2.168 3.2695-2.168 5.2383 0 1.9609 0.77734 3.8477 2.168 5.2305l52.625 52.625c0.22266 0.22266 0.51953 0.3125 0.76172 0.50391 0.24609 0.18359 0.39844 0.44531 0.66406 0.60547l23.914 14.34c0.72656 0.4375 1.5234 0.74609 2.3516 0.91016l13.254 2.6562c0.082032 1.7773 0.74609 3.5352 2.1016 4.8984l19.137 19.137c1.4375 1.4414 3.332 2.1641 5.2227 2.1641 1.8945 0 3.7891-0.72656 5.2305-2.168l81.324-81.324c2.8945-2.8945 2.8945-7.5703 0-10.465zm-102.98 69.977-22.043-13.215-46.75-46.75 8.6719-8.6641 37.82 37.82c1.4414 1.4414 3.3359 2.168 5.2305 2.168 1.8945 0 3.7891-0.72656 5.2305-2.168 2.8945-2.8945 2.8945-7.5703 0-10.465l-43.023-43.023c-0.007813-0.007813-0.007813-0.023438-0.023438-0.03125-0.015625-0.007813-0.023437-0.007813-0.03125-0.023438l-4.3086-4.3125 8.6719-8.6719 52.176 52.176c1.4414 1.4414 3.3359 2.168 5.2305 2.168 1.8945 0 3.7891-0.72656 5.2305-2.168 2.8945-2.8945 2.8945-7.5703 0-10.465l-66.523-66.523 8.6641-8.6719 71.312 71.305c2.8945 2.8945 7.5703 2.8945 10.465 0 1.4414-1.4414 2.168-3.3359 2.168-5.2305s-0.72656-3.7891-2.168-5.2305l-56.957-56.957 8.6641-8.6641 47.395 47.379 14.34 14.355c2.8867 2.8945 7.5781 2.8945 10.465 0.007812 2.8945-2.8945 2.8945-7.5703 0.007812-10.465l-9.1172-9.125 11.988-11.988 9.2305 15.359 12.18 28.414-65.414 65.422zm35.562 25.258-8.6719-8.6719 70.859-70.867 8.6719 8.6719z" fill="#fff"/>
 </g>
</svg>
