<?xml version="1.0" encoding="UTF-8"?>
<svg width="752pt" height="752pt" version="1.1" viewBox="0 0 752 752" xmlns="http://www.w3.org/2000/svg">
 <g>
  <path d="m376 0c-49.375 0-98.27 9.7266-143.89 28.621-45.621 18.895-87.07 46.59-121.98 81.508-34.918 34.914-62.613 76.363-81.508 121.98-18.895 45.617-28.621 94.512-28.621 143.89 0 99.723 39.617 195.36 110.13 265.87 70.516 70.516 166.15 110.13 265.87 110.13 99.723 0 195.36-39.617 265.87-110.13 70.512-70.512 110.13-166.15 110.13-265.87 0-99.719-39.613-195.36-110.12-265.87-70.516-70.516-166.15-110.13-265.88-110.13zm0 42.465c43.316 0 86.207 8.625 126.23 25.387 40.02 16.762 76.379 41.332 107.01 72.305s54.926 67.738 71.5 108.21c16.578 40.465 25.105 83.84 25.105 127.64 0 88.461-34.75 173.3-96.605 235.84-61.859 62.551-145.75 97.691-233.23 97.691-43.312 0-86.207-8.625-126.22-25.387-40.02-16.762-76.383-41.332-107.01-72.301-30.629-30.973-54.926-67.742-71.504-108.21-16.574-40.469-25.105-83.84-25.105-127.64s8.5312-87.172 25.105-127.64c16.578-40.469 40.871-77.238 71.5-108.21 30.629-30.969 66.992-55.539 107.01-72.301 40.02-16.762 82.914-25.387 126.23-25.387z" fill="#9b9b9b"/>
  <path d="m494.4 183.61h-236.79c-24.477 0-44.398 19.922-44.398 44.398v234.17c0 16.117 8.7461 30.988 23.562 39.176l117.68 57.184c6.8359 3.8047 14.34 5.668 21.742 5.668 7.2227 0 14.34-1.7773 20.66-5.2969l118.39-57.555 0.71094-0.37109c14.09-7.8125 22.836-22.688 22.836-38.82l-0.003906-234.16c0-24.477-19.922-44.398-44.398-44.398zm14.801 278.57c0 5.2539-2.7969 10.121-7.3242 12.773l-118.69 57.719c-4.5 2.5-9.8711 2.5-15.094-0.37109l-117.68-57.184c-4.6914-2.6055-7.6055-7.5625-7.6055-12.934l-0.007812-234.18c0-8.1562 6.6445-14.801 14.801-14.801h236.8c8.1562 0 14.801 6.6445 14.801 14.801zm-63.535-155.84c5.7852 5.7852 5.7852 15.141 0 20.926l-73.996 73.996c-2.8867 2.8867-6.6758 4.3359-10.465 4.3359s-7.5781-1.4492-10.465-4.3359l-29.598-29.598c-5.7852-5.7852-5.7852-15.141 0-20.926 5.7852-5.7852 15.141-5.7852 20.926 0l19.137 19.137 63.535-63.535c5.7852-5.7852 15.141-5.7852 20.926 0z" fill="#fff"/>
 </g>
</svg>
