<?xml version="1.0" encoding="UTF-8"?>
<svg width="752pt" height="752pt" version="1.1" viewBox="0 0 752 752" xmlns="http://www.w3.org/2000/svg">
 <g>
  <path d="m376 0c-49.375 0-98.27 9.7266-143.89 28.621-45.621 18.895-87.07 46.59-121.98 81.508-34.918 34.914-62.613 76.363-81.508 121.98-18.895 45.617-28.621 94.512-28.621 143.89 0 99.723 39.617 195.36 110.13 265.87 70.516 70.516 166.15 110.13 265.87 110.13 99.723 0 195.36-39.617 265.87-110.13 70.512-70.512 110.13-166.15 110.13-265.87 0-99.719-39.613-195.36-110.12-265.87-70.516-70.516-166.15-110.13-265.88-110.13zm0 42.465c43.316 0 86.207 8.625 126.23 25.387 40.02 16.762 76.379 41.332 107.01 72.305s54.926 67.738 71.5 108.21c16.578 40.465 25.105 83.84 25.105 127.64 0 88.461-34.75 173.3-96.605 235.84-61.859 62.551-145.75 97.691-233.23 97.691-43.312 0-86.207-8.625-126.22-25.387-40.02-16.762-76.383-41.332-107.01-72.301-30.629-30.973-54.926-67.742-71.504-108.21-16.574-40.469-25.105-83.84-25.105-127.64s8.5312-87.172 25.105-127.64c16.578-40.469 40.871-77.238 71.5-108.21 30.629-30.969 66.992-55.539 107.01-72.301 40.02-16.762 82.914-25.387 126.23-25.387z" fill="#9b9b9b"/>
  <path d="m576.78 325.68-32.066-32.066c-1.9727-1.9727-4.4414-2.9609-6.9062-2.9609s-4.9336 0.98828-6.9062 2.9609l-92.742 92.25c-13.32-6.4141-27.625-11.348-42.918-14.801 23.68-16.773 39.465-45.879 39.465-78.93 0-51.797-37.984-93.73-84.852-93.73-46.863 0-84.852 41.934-84.852 93.73 0 33.051 15.785 62.156 39.465 78.93-29.598 6.4141-57.223 19.734-79.422 38.477-34.039 28.121-52.785 66.109-52.785 106.56 0 15.293 18.254 24.172 60.676 30.586 31.078 4.4414 72.516 6.9062 116.91 6.9062 44.398 0 85.836-2.4648 116.91-6.9062 42.426-6.4141 60.676-15.293 60.676-30.586 0-33.051-12.824-64.625-36.012-90.77l85.344-85.344c3.9531-3.9453 3.9531-10.359 0.007812-14.305zm-292.04-33.547c0-40.945 29.105-73.996 65.117-73.996s65.117 33.051 65.117 73.996c0 40.945-29.105 74-65.117 74s-65.117-33.055-65.117-74zm222.98 222.48c-7.3984 7.8945-61.664 19.238-157.86 19.238-96.195 0-149.97-11.348-157.86-19.238 0.49219-34.039 16.281-66.105 45.387-90.277 30.09-24.664 70.047-38.477 112.47-38.477 25.652 0 50.812 5.4258 73.504 14.801l-32.559 32.559-38.973-31.078c-4.4414-3.4531-10.359-2.9609-13.812 1.4805l-28.613 35.52c-1.4805 1.9727-2.4648 4.4414-1.9727 7.3984 0.49219 2.9609 1.4805 4.9336 3.4531 6.4141l77.449 62.156c1.9727 1.4805 3.9453 1.9727 5.918 1.9727 2.4648 0 4.9336-0.98828 6.9062-2.9609l75.477-75.477c20.23 22.691 30.59 48.84 31.082 75.969zm-113.46-20.223-63.145-50.32 16.281-20.227 37.984 30.586c3.9453 2.9609 9.3711 2.9609 13.32-0.49219l139.11-139.11 18.254 18.254z" fill="#fff"/>
 </g>
</svg>
